# xmcd CD database file
#
# Track frame offsets:
#	150
#	20925
#	42410
#	67800
#	90975
#	108927
#	133172
#	152875
#	171850
#	193590
#	194752
#	210585
#	230435
#
# Disc length: 3303 seconds
#
# Revision: 3
# Processed by: cddbd v1.5.2PL0 Copyright (c) Steve Scherf et al.
# Submitted via: CDex 1.70beta3
#
DISCID=b60ce50d
DTITLE=Joe Lynn Turner - Nothing's Changed
DYEAR=1995
DGENRE=Melodic Hard Rock
TTITLE0=Promise Of Love
TTITLE1=I Believe
TTITLE2=Bad Blood
TTITLE3=Imagination
TTITLE4=Baby's Got A Habit
TTITLE5=Satisfy Me
TTITLE6=All Or Nothing At All
TTITLE7=Save A Place
TTITLE8=Nothing's Changed
TTITLE9=Liviana's Intro
TTITLE10=The Last Thing
TTITLE11=Let Me Love You Again
TTITLE12=Knock Knock
EXTD=I bought this CD in Europe ( Spain to be exact ) YEAR: 1995
EXTT0=
EXTT1=
EXTT2=
EXTT3=
EXTT4=
EXTT5=
EXTT6=
EXTT7=
EXTT8=
EXTT9=
EXTT10=
EXTT11=
EXTT12=
PLAYORDER=
